<svg width="32" height="32" viewBox="0 0 32 32" fill="none" xmlns="http://www.w3.org/2000/svg">
<path fill-rule="evenodd" clip-rule="evenodd" d="M22.8483 1.53555C20.7723 0.550878 18.4505 0 16 0H0V16V32L9.03982 19.9469C8.37798 18.7823 8 17.4353 8 16V8H16C16.6334 8 17.2496 8.0736 17.8405 8.21273L22.8483 1.53555ZM27.9661 5.37847L22.9602 12.0531C23.622 13.2177 24 14.5647 24 16C24 20.4183 20.4183 24 16 24C15.3666 24 14.7504 23.9264 14.1595 23.7873L8 32H16C24.8366 32 32 24.8366 32 16C32 11.9239 30.4758 8.20371 27.9661 5.37847Z" fill="#372E99"/>
</svg>
