<svg width="257" height="257" viewBox="0 0 257 257" fill="none" xmlns="http://www.w3.org/2000/svg">
<path fill-rule="evenodd" clip-rule="evenodd" d="M183.501 12.3324C166.827 4.42424 148.18 0 128.5 0H0V128.5V257L72.601 160.199C67.2856 150.845 64.25 140.027 64.25 128.5V64.25H128.5C133.587 64.25 138.535 64.8411 143.281 65.9585L183.501 12.3324ZM224.603 43.1958L184.399 96.8014C189.714 106.155 192.75 116.973 192.75 128.5C192.75 163.984 163.984 192.75 128.5 192.75C123.413 192.75 118.465 192.159 113.719 191.042L64.25 257H128.5C199.469 257 257 199.469 257 128.5C257 95.7635 244.758 65.8861 224.603 43.1958Z" fill="#372E99"/>
</svg>
