<svg width="742" height="732" viewBox="0 0 742 732" fill="none" xmlns="http://www.w3.org/2000/svg">
<g opacity="0.3">
<path d="M0 -14C0 -28.3594 11.6406 -40 26 -40H52C66.3594 -40 78 -28.3594 78 -14V12C78 26.3594 66.3594 38 52 38H26C11.6406 38 0 26.3594 0 12V-14Z" fill="#312985" fill-opacity="0.65"/>
<path d="M78 -14C78 -28.3594 89.3421 -40 103.333 -40H128.667C142.658 -40 154 -28.3594 154 -14V12C154 26.3594 142.658 38 128.667 38H103.333C89.3421 38 78 26.3594 78 12V-14Z" fill="#312985" fill-opacity="0.2"/>
<path d="M154 -14C154 -28.3594 165.641 -40 180 -40H206C220.359 -40 232 -28.3594 232 -14V12C232 26.3594 220.359 38 206 38H180C165.641 38 154 26.3594 154 12V-14Z" fill="#312985"/>
<path d="M232 -14C232 -28.3594 243.342 -40 257.333 -40H282.667C296.658 -40 308 -28.3594 308 -14V12C308 26.3594 296.658 38 282.667 38H257.333C243.342 38 232 26.3594 232 12V-14Z" fill="#312985" fill-opacity="0.2"/>
<path d="M308 -14C308 -28.3594 319.641 -40 334 -40H360C374.359 -40 386 -28.3594 386 -14V12C386 26.3594 374.359 38 360 38H334C319.641 38 308 26.3594 308 12V-14Z" fill="#312985" fill-opacity="0.8"/>
<path d="M386 -14C386 -28.3594 397.641 -40 412 -40H438C452.359 -40 464 -28.3594 464 -14V12C464 26.3594 452.359 38 438 38H412C397.641 38 386 26.3594 386 12V-14Z" fill="#312985"/>
<path d="M464 -14C464 -28.3594 475.491 -40 489.667 -40H515.333C529.509 -40 541 -28.3594 541 -14V12C541 26.3594 529.509 38 515.333 38H489.667C475.491 38 464 26.3594 464 12V-14Z" fill="#312985" fill-opacity="0.2"/>
<path d="M541 -14C541 -28.3594 552.491 -40 566.667 -40H592.333C606.509 -40 618 -28.3594 618 -14V12C618 26.3594 606.509 38 592.333 38H566.667C552.491 38 541 26.3594 541 12V-14Z" fill="#312985" fill-opacity="0.8"/>
<path d="M618 -14C618 -28.3594 629.491 -40 643.667 -40H669.333C683.509 -40 695 -28.3594 695 -14V12C695 26.3594 683.509 38 669.333 38H643.667C629.491 38 618 26.3594 618 12V-14Z" fill="#312985" fill-opacity="0.2"/>
<path d="M695 -14C695 -28.3594 706.491 -40 720.667 -40H746.333C760.509 -40 772 -28.3594 772 -14V12C772 26.3594 760.509 38 746.333 38H720.667C706.491 38 695 26.3594 695 12V-14Z" fill="#312985"/>
<path d="M232 63.3333C232 49.3421 243.342 38 257.333 38H282.667C296.658 38 308 49.3421 308 63.3333V88.6667C308 102.658 296.658 114 282.667 114H257.333C243.342 114 232 102.658 232 88.6667V63.3333Z" fill="#312985"/>
<path d="M308 63.3333C308 49.3421 319.641 38 334 38H360C374.359 38 386 49.3421 386 63.3333V88.6667C386 102.658 374.359 114 360 114H334C319.641 114 308 102.658 308 88.6667V63.3333Z" fill="#312985" fill-opacity="0.45"/>
<path d="M386 63.3333C386 49.3421 397.641 38 412 38H438C452.359 38 464 49.3421 464 63.3333V88.6667C464 102.658 452.359 114 438 114H412C397.641 114 386 102.658 386 88.6667V63.3333Z" fill="#312985" fill-opacity="0.35"/>
<path d="M464 63.3333C464 49.3421 475.491 38 489.667 38H515.333C529.509 38 541 49.3421 541 63.3333V88.6667C541 102.658 529.509 114 515.333 114H489.667C475.491 114 464 102.658 464 88.6667V63.3333Z" fill="#312985" fill-opacity="0.45"/>
<path d="M541 63.3333C541 49.3421 552.491 38 566.667 38H592.333C606.509 38 618 49.3421 618 63.3333V88.6667C618 102.658 606.509 114 592.333 114H566.667C552.491 114 541 102.658 541 88.6667V63.3333Z" fill="#312985"/>
<path d="M618 63.3333C618 49.3421 629.491 38 643.667 38H669.333C683.509 38 695 49.3421 695 63.3333V88.6667C695 102.658 683.509 114 669.333 114H643.667C629.491 114 618 102.658 618 88.6667V63.3333Z" fill="#312985" fill-opacity="0.45"/>
<path d="M695 63.3333C695 49.3421 706.491 38 720.667 38H746.333C760.509 38 772 49.3421 772 63.3333V88.6667C772 102.658 760.509 114 746.333 114H720.667C706.491 114 695 102.658 695 88.6667V63.3333Z" fill="#312985" fill-opacity="0.45"/>
<path d="M308 140C308 125.641 319.641 114 334 114H360C374.359 114 386 125.641 386 140V166C386 180.359 374.359 192 360 192H334C319.641 192 308 180.359 308 166V140Z" fill="#312985" fill-opacity="0.2"/>
<path d="M386 140C386 125.641 397.641 114 412 114H438C452.359 114 464 125.641 464 140V166C464 180.359 452.359 192 438 192H412C397.641 192 386 180.359 386 166V140Z" fill="#312985" fill-opacity="0.34"/>
<path d="M464 140C464 125.641 475.491 114 489.667 114H515.333C529.509 114 541 125.641 541 140V166C541 180.359 529.509 192 515.333 192H489.667C475.491 192 464 180.359 464 166V140Z" fill="#312985" fill-opacity="0.65"/>
<path d="M541 140C541 125.641 552.491 114 566.667 114H592.333C606.509 114 618 125.641 618 140V166C618 180.359 606.509 192 592.333 192H566.667C552.491 192 541 180.359 541 166V140Z" fill="#312985" fill-opacity="0.6"/>
<path d="M618 140C618 125.641 629.491 114 643.667 114H669.333C683.509 114 695 125.641 695 140V166C695 180.359 683.509 192 669.333 192H643.667C629.491 192 618 180.359 618 166V140Z" fill="#312985" fill-opacity="0.7"/>
<path d="M695 140C695 125.641 706.491 114 720.667 114H746.333C760.509 114 772 125.641 772 140V166C772 180.359 760.509 192 746.333 192H720.667C706.491 192 695 180.359 695 166V140Z" fill="#312985" fill-opacity="0.34"/>
<path d="M386 217.333C386 203.342 397.641 192 412 192H438C452.359 192 464 203.342 464 217.333V242.667C464 256.658 452.359 268 438 268H412C397.641 268 386 256.658 386 242.667V217.333Z" fill="#312985" fill-opacity="0.65"/>
<path d="M464 217.333C464 203.342 475.491 192 489.667 192H515.333C529.509 192 541 203.342 541 217.333V242.667C541 256.658 529.509 268 515.333 268H489.667C475.491 268 464 256.658 464 242.667V217.333Z" fill="#312985" fill-opacity="0.34"/>
<path d="M541 217.333C541 203.342 552.491 192 566.667 192H592.333C606.509 192 618 203.342 618 217.333V242.667C618 256.658 606.509 268 592.333 268H566.667C552.491 268 541 256.658 541 242.667V217.333Z" fill="#312985" fill-opacity="0.34"/>
<path d="M618 217.333C618 203.342 629.491 192 643.667 192H669.333C683.509 192 695 203.342 695 217.333V242.667C695 256.658 683.509 268 669.333 268H643.667C629.491 268 618 256.658 618 242.667V217.333Z" fill="#312985" fill-opacity="0.7"/>
<path d="M695 217.333C695 203.342 706.491 192 720.667 192H746.333C760.509 192 772 203.342 772 217.333V242.667C772 256.658 760.509 268 746.333 268H720.667C706.491 268 695 256.658 695 242.667V217.333Z" fill="#312985" fill-opacity="0.34"/>
<path d="M232 294C232 279.641 243.342 268 257.333 268H282.667C296.658 268 308 279.641 308 294V320C308 334.359 296.658 346 282.667 346H257.333C243.342 346 232 334.359 232 320V294Z" fill="#312985" fill-opacity="0.45"/>
<path d="M308 294C308 279.641 319.641 268 334 268H360C374.359 268 386 279.641 386 294V320C386 334.359 374.359 346 360 346H334C319.641 346 308 334.359 308 320V294Z" fill="#312985" fill-opacity="0.45"/>
<path d="M386 294C386 279.641 397.641 268 412 268H438C452.359 268 464 279.641 464 294V320C464 334.359 452.359 346 438 346H412C397.641 346 386 334.359 386 320V294Z" fill="#312985"/>
<path d="M464 294C464 279.641 475.491 268 489.667 268H515.333C529.509 268 541 279.641 541 294V320C541 334.359 529.509 346 515.333 346H489.667C475.491 346 464 334.359 464 320V294Z" fill="#312985" fill-opacity="0.2"/>
<path d="M541 294C541 279.641 552.491 268 566.667 268H592.333C606.509 268 618 279.641 618 294V320C618 334.359 606.509 346 592.333 346H566.667C552.491 346 541 334.359 541 320V294Z" fill="#312985"/>
<path d="M618 294C618 279.641 629.491 268 643.667 268H669.333C683.509 268 695 279.641 695 294V320C695 334.359 683.509 346 669.333 346H643.667C629.491 346 618 334.359 618 320V294Z" fill="#312985" fill-opacity="0.45"/>
<path d="M695 294C695 279.641 706.491 268 720.667 268H746.333C760.509 268 772 279.641 772 294V320C772 334.359 760.509 346 746.333 346H720.667C706.491 346 695 334.359 695 320V294Z" fill="#312985" fill-opacity="0.7"/>
<path d="M232 372C232 357.641 243.342 346 257.333 346H282.667C296.658 346 308 357.641 308 372V398C308 412.359 296.658 424 282.667 424H257.333C243.342 424 232 412.359 232 398V372Z" fill="#312985" fill-opacity="0.2"/>
<path d="M308 372C308 357.641 319.641 346 334 346H360C374.359 346 386 357.641 386 372V398C386 412.359 374.359 424 360 424H334C319.641 424 308 412.359 308 398V372Z" fill="#312985" fill-opacity="0.34"/>
<path d="M386 372C386 357.641 397.641 346 412 346H438C452.359 346 464 357.641 464 372V398C464 412.359 452.359 424 438 424H412C397.641 424 386 412.359 386 398V372Z" fill="#312985"/>
<path d="M464 372C464 357.641 475.491 346 489.667 346H515.333C529.509 346 541 357.641 541 372V398C541 412.359 529.509 424 515.333 424H489.667C475.491 424 464 412.359 464 398V372Z" fill="#312985" fill-opacity="0.34"/>
<path d="M541 372C541 357.641 552.491 346 566.667 346H592.333C606.509 346 618 357.641 618 372V398C618 412.359 606.509 424 592.333 424H566.667C552.491 424 541 412.359 541 398V372Z" fill="#312985" fill-opacity="0.45"/>
<path d="M618 372C618 357.641 629.491 346 643.667 346H669.333C683.509 346 695 357.641 695 372V398C695 412.359 683.509 424 669.333 424H643.667C629.491 424 618 412.359 618 398V372Z" fill="#312985" fill-opacity="0.7"/>
<path d="M695 372C695 357.641 706.491 346 720.667 346H746.333C760.509 346 772 357.641 772 372V398C772 412.359 760.509 424 746.333 424H720.667C706.491 424 695 412.359 695 398V372Z" fill="#312985" fill-opacity="0.34"/>
<path d="M386 449.667C386 435.491 397.641 424 412 424H438C452.359 424 464 435.491 464 449.667V475.333C464 489.509 452.359 501 438 501H412C397.641 501 386 489.509 386 475.333V449.667Z" fill="#312985" fill-opacity="0.15"/>
<path d="M464 449.667C464 435.491 475.491 424 489.667 424H515.333C529.509 424 541 435.491 541 449.667V475.333C541 489.509 529.509 501 515.333 501H489.667C475.491 501 464 489.509 464 475.333V449.667Z" fill="#312985" fill-opacity="0.8"/>
<path d="M541 449.667C541 435.491 552.491 424 566.667 424H592.333C606.509 424 618 435.491 618 449.667V475.333C618 489.509 606.509 501 592.333 501H566.667C552.491 501 541 489.509 541 475.333V449.667Z" fill="#312985"/>
<path d="M618 449.667C618 435.491 629.491 424 643.667 424H669.333C683.509 424 695 435.491 695 449.667V475.333C695 489.509 683.509 501 669.333 501H643.667C629.491 501 618 489.509 618 475.333V449.667Z" fill="#312985" fill-opacity="0.2"/>
<path d="M695 449.667C695 435.491 706.491 424 720.667 424H746.333C760.509 424 772 435.491 772 449.667V475.333C772 489.509 760.509 501 746.333 501H720.667C706.491 501 695 489.509 695 475.333V449.667Z" fill="#312985" fill-opacity="0.45"/>
<path d="M386 526.667C386 512.491 397.641 501 412 501H438C452.359 501 464 512.491 464 526.667V552.333C464 566.509 452.359 578 438 578H412C397.641 578 386 566.509 386 552.333V526.667Z" fill="#312985" fill-opacity="0.2"/>
<path d="M464 526.667C464 512.491 475.491 501 489.667 501H515.333C529.509 501 541 512.491 541 526.667V552.333C541 566.509 529.509 578 515.333 578H489.667C475.491 578 464 566.509 464 552.333V526.667Z" fill="#312985" fill-opacity="0.45"/>
<path d="M541 526.667C541 512.491 552.491 501 566.667 501H592.333C606.509 501 618 512.491 618 526.667V552.333C618 566.509 606.509 578 592.333 578H566.667C552.491 578 541 566.509 541 552.333V526.667Z" fill="#312985" fill-opacity="0.64"/>
<path d="M618 526.667C618 512.491 629.491 501 643.667 501H669.333C683.509 501 695 512.491 695 526.667V552.333C695 566.509 683.509 578 669.333 578H643.667C629.491 578 618 566.509 618 552.333V526.667Z" fill="#312985" fill-opacity="0.2"/>
<path d="M695 526.667C695 512.491 706.491 501 720.667 501H746.333C760.509 501 772 512.491 772 526.667V552.333C772 566.509 760.509 578 746.333 578H720.667C706.491 578 695 566.509 695 552.333V526.667Z" fill="#312985"/>
<path d="M695 603.667C695 589.491 706.491 578 720.667 578H746.333C760.509 578 772 589.491 772 603.667V629.333C772 643.509 760.509 655 746.333 655H720.667C706.491 655 695 643.509 695 629.333V603.667Z" fill="#312985" fill-opacity="0.8"/>
<path d="M695 680.667C695 666.491 706.491 655 720.667 655H746.333C760.509 655 772 666.491 772 680.667V706.333C772 720.509 760.509 732 746.333 732H720.667C706.491 732 695 720.509 695 706.333V680.667Z" fill="#312985" fill-opacity="0.64"/>
</g>
</svg>
