<svg width="512" height="512" viewBox="0 0 512 512" fill="none" xmlns="http://www.w3.org/2000/svg">
<path d="M411.2 113.6C382.4 100.8 352 91.1998 320 84.7998H318.4C315.2 91.1998 310.4 100.8 307.2 108.8C272 104 238.4 104 204.8 108.8C201.6 100.8 196.8 92.7998 193.6 84.7998H192C160 89.5998 129.6 99.1998 100.8 113.6C43.1996 200 27.1996 284.8 35.1996 368V369.6C73.5996 398.4 110.4 414.4 147.2 425.6H148.8C156.8 414.4 164.8 401.6 171.2 388.8V387.2C158.4 382.4 147.2 377.6 136 371.2C134.4 371.2 134.4 369.6 136 369.6C137.6 368 140.8 366.4 142.4 364.8H144C217.6 398.4 296 398.4 369.6 364.8H371.2C372.8 366.4 376 368 377.6 369.6C379.2 369.6 377.6 371.2 377.6 371.2C366.4 377.6 355.2 384 342.4 387.2C342.4 387.2 340.8 388.8 342.4 388.8C348.8 401.6 356.8 414.4 364.8 425.6H366.4C403.2 414.4 440 396.8 478.4 369.6V368C488 272 462.4 188.8 411.2 113.6V113.6ZM182.4 318.4C160 318.4 142.4 297.6 142.4 273.6C142.4 249.6 160 228.8 182.4 228.8C204.8 228.8 222.4 249.6 222.4 273.6C222.4 297.6 204.8 318.4 182.4 318.4ZM331.2 318.4C308.8 318.4 291.2 297.6 291.2 273.6C291.2 249.6 308.8 228.8 331.2 228.8C353.6 228.8 371.2 249.6 371.2 273.6C371.2 297.6 353.6 318.4 331.2 318.4Z" fill="black"/>
</svg>
