<svg width="772" height="772" viewBox="0 0 772 772" fill="none" xmlns="http://www.w3.org/2000/svg">
<g opacity="0.1">
<path d="M0 26C0 11.6406 11.6406 0 26 0H52C66.3594 0 78 11.6406 78 26V52C78 66.3594 66.3594 78 52 78H26C11.6406 78 0 66.3594 0 52V26Z" fill="#312985" fill-opacity="0.65"/>
<path d="M78 26C78 11.6406 89.3421 0 103.333 0H128.667C142.658 0 154 11.6406 154 26V52C154 66.3594 142.658 78 128.667 78H103.333C89.3421 78 78 66.3594 78 52V26Z" fill="#312985" fill-opacity="0.2"/>
<path d="M154 26C154 11.6406 165.641 0 180 0H206C220.359 0 232 11.6406 232 26V52C232 66.3594 220.359 78 206 78H180C165.641 78 154 66.3594 154 52V26Z" fill="#312985"/>
<path d="M232 26C232 11.6406 243.342 0 257.333 0H282.667C296.658 0 308 11.6406 308 26V52C308 66.3594 296.658 78 282.667 78H257.333C243.342 78 232 66.3594 232 52V26Z" fill="#312985" fill-opacity="0.2"/>
<path d="M308 26C308 11.6406 319.641 0 334 0H360C374.359 0 386 11.6406 386 26V52C386 66.3594 374.359 78 360 78H334C319.641 78 308 66.3594 308 52V26Z" fill="#312985" fill-opacity="0.8"/>
<path d="M386 26C386 11.6406 397.641 0 412 0H438C452.359 0 464 11.6406 464 26V52C464 66.3594 452.359 78 438 78H412C397.641 78 386 66.3594 386 52V26Z" fill="#312985"/>
<path d="M464 26C464 11.6406 475.491 0 489.667 0H515.333C529.509 0 541 11.6406 541 26V52C541 66.3594 529.509 78 515.333 78H489.667C475.491 78 464 66.3594 464 52V26Z" fill="#312985" fill-opacity="0.2"/>
<path d="M541 26C541 11.6406 552.491 0 566.667 0H592.333C606.509 0 618 11.6406 618 26V52C618 66.3594 606.509 78 592.333 78H566.667C552.491 78 541 66.3594 541 52V26Z" fill="#312985" fill-opacity="0.8"/>
<path d="M618 26C618 11.6406 629.491 0 643.667 0H669.333C683.509 0 695 11.6406 695 26V52C695 66.3594 683.509 78 669.333 78H643.667C629.491 78 618 66.3594 618 52V26Z" fill="#312985" fill-opacity="0.2"/>
<path d="M695 26C695 11.6406 706.491 0 720.667 0H746.333C760.509 0 772 11.6406 772 26V52C772 66.3594 760.509 78 746.333 78H720.667C706.491 78 695 66.3594 695 52V26Z" fill="#312985"/>
<path d="M232 103.333C232 89.3421 243.342 78 257.333 78H282.667C296.658 78 308 89.3421 308 103.333V128.667C308 142.658 296.658 154 282.667 154H257.333C243.342 154 232 142.658 232 128.667V103.333Z" fill="#312985"/>
<path d="M308 103.333C308 89.3421 319.641 78 334 78H360C374.359 78 386 89.3421 386 103.333V128.667C386 142.658 374.359 154 360 154H334C319.641 154 308 142.658 308 128.667V103.333Z" fill="#312985" fill-opacity="0.45"/>
<path d="M386 103.333C386 89.3421 397.641 78 412 78H438C452.359 78 464 89.3421 464 103.333V128.667C464 142.658 452.359 154 438 154H412C397.641 154 386 142.658 386 128.667V103.333Z" fill="#312985" fill-opacity="0.35"/>
<path d="M464 103.333C464 89.3421 475.491 78 489.667 78H515.333C529.509 78 541 89.3421 541 103.333V128.667C541 142.658 529.509 154 515.333 154H489.667C475.491 154 464 142.658 464 128.667V103.333Z" fill="#312985" fill-opacity="0.45"/>
<path d="M541 103.333C541 89.3421 552.491 78 566.667 78H592.333C606.509 78 618 89.3421 618 103.333V128.667C618 142.658 606.509 154 592.333 154H566.667C552.491 154 541 142.658 541 128.667V103.333Z" fill="#312985"/>
<path d="M618 103.333C618 89.3421 629.491 78 643.667 78H669.333C683.509 78 695 89.3421 695 103.333V128.667C695 142.658 683.509 154 669.333 154H643.667C629.491 154 618 142.658 618 128.667V103.333Z" fill="#312985" fill-opacity="0.45"/>
<path d="M695 103.333C695 89.3421 706.491 78 720.667 78H746.333C760.509 78 772 89.3421 772 103.333V128.667C772 142.658 760.509 154 746.333 154H720.667C706.491 154 695 142.658 695 128.667V103.333Z" fill="#312985" fill-opacity="0.45"/>
<path d="M308 180C308 165.641 319.641 154 334 154H360C374.359 154 386 165.641 386 180V206C386 220.359 374.359 232 360 232H334C319.641 232 308 220.359 308 206V180Z" fill="#312985" fill-opacity="0.2"/>
<path d="M386 180C386 165.641 397.641 154 412 154H438C452.359 154 464 165.641 464 180V206C464 220.359 452.359 232 438 232H412C397.641 232 386 220.359 386 206V180Z" fill="#312985" fill-opacity="0.34"/>
<path d="M464 180C464 165.641 475.491 154 489.667 154H515.333C529.509 154 541 165.641 541 180V206C541 220.359 529.509 232 515.333 232H489.667C475.491 232 464 220.359 464 206V180Z" fill="#312985" fill-opacity="0.65"/>
<path d="M541 180C541 165.641 552.491 154 566.667 154H592.333C606.509 154 618 165.641 618 180V206C618 220.359 606.509 232 592.333 232H566.667C552.491 232 541 220.359 541 206V180Z" fill="#312985" fill-opacity="0.6"/>
<path d="M618 180C618 165.641 629.491 154 643.667 154H669.333C683.509 154 695 165.641 695 180V206C695 220.359 683.509 232 669.333 232H643.667C629.491 232 618 220.359 618 206V180Z" fill="#312985" fill-opacity="0.7"/>
<path d="M695 180C695 165.641 706.491 154 720.667 154H746.333C760.509 154 772 165.641 772 180V206C772 220.359 760.509 232 746.333 232H720.667C706.491 232 695 220.359 695 206V180Z" fill="#312985" fill-opacity="0.34"/>
<path d="M386 257.333C386 243.342 397.641 232 412 232H438C452.359 232 464 243.342 464 257.333V282.667C464 296.658 452.359 308 438 308H412C397.641 308 386 296.658 386 282.667V257.333Z" fill="#312985" fill-opacity="0.65"/>
<path d="M464 257.333C464 243.342 475.491 232 489.667 232H515.333C529.509 232 541 243.342 541 257.333V282.667C541 296.658 529.509 308 515.333 308H489.667C475.491 308 464 296.658 464 282.667V257.333Z" fill="#312985" fill-opacity="0.34"/>
<path d="M541 257.333C541 243.342 552.491 232 566.667 232H592.333C606.509 232 618 243.342 618 257.333V282.667C618 296.658 606.509 308 592.333 308H566.667C552.491 308 541 296.658 541 282.667V257.333Z" fill="#312985" fill-opacity="0.34"/>
<path d="M618 257.333C618 243.342 629.491 232 643.667 232H669.333C683.509 232 695 243.342 695 257.333V282.667C695 296.658 683.509 308 669.333 308H643.667C629.491 308 618 296.658 618 282.667V257.333Z" fill="#312985" fill-opacity="0.7"/>
<path d="M695 257.333C695 243.342 706.491 232 720.667 232H746.333C760.509 232 772 243.342 772 257.333V282.667C772 296.658 760.509 308 746.333 308H720.667C706.491 308 695 296.658 695 282.667V257.333Z" fill="#312985" fill-opacity="0.34"/>
<path d="M232 334C232 319.641 243.342 308 257.333 308H282.667C296.658 308 308 319.641 308 334V360C308 374.359 296.658 386 282.667 386H257.333C243.342 386 232 374.359 232 360V334Z" fill="#312985" fill-opacity="0.45"/>
<path d="M308 334C308 319.641 319.641 308 334 308H360C374.359 308 386 319.641 386 334V360C386 374.359 374.359 386 360 386H334C319.641 386 308 374.359 308 360V334Z" fill="#312985" fill-opacity="0.45"/>
<path d="M386 334C386 319.641 397.641 308 412 308H438C452.359 308 464 319.641 464 334V360C464 374.359 452.359 386 438 386H412C397.641 386 386 374.359 386 360V334Z" fill="#312985"/>
<path d="M464 334C464 319.641 475.491 308 489.667 308H515.333C529.509 308 541 319.641 541 334V360C541 374.359 529.509 386 515.333 386H489.667C475.491 386 464 374.359 464 360V334Z" fill="#312985" fill-opacity="0.2"/>
<path d="M541 334C541 319.641 552.491 308 566.667 308H592.333C606.509 308 618 319.641 618 334V360C618 374.359 606.509 386 592.333 386H566.667C552.491 386 541 374.359 541 360V334Z" fill="#312985"/>
<path d="M618 334C618 319.641 629.491 308 643.667 308H669.333C683.509 308 695 319.641 695 334V360C695 374.359 683.509 386 669.333 386H643.667C629.491 386 618 374.359 618 360V334Z" fill="#312985" fill-opacity="0.45"/>
<path d="M695 334C695 319.641 706.491 308 720.667 308H746.333C760.509 308 772 319.641 772 334V360C772 374.359 760.509 386 746.333 386H720.667C706.491 386 695 374.359 695 360V334Z" fill="#312985" fill-opacity="0.7"/>
<path d="M232 412C232 397.641 243.342 386 257.333 386H282.667C296.658 386 308 397.641 308 412V438C308 452.359 296.658 464 282.667 464H257.333C243.342 464 232 452.359 232 438V412Z" fill="#312985" fill-opacity="0.2"/>
<path d="M308 412C308 397.641 319.641 386 334 386H360C374.359 386 386 397.641 386 412V438C386 452.359 374.359 464 360 464H334C319.641 464 308 452.359 308 438V412Z" fill="#312985" fill-opacity="0.34"/>
<path d="M386 412C386 397.641 397.641 386 412 386H438C452.359 386 464 397.641 464 412V438C464 452.359 452.359 464 438 464H412C397.641 464 386 452.359 386 438V412Z" fill="#312985"/>
<path d="M464 412C464 397.641 475.491 386 489.667 386H515.333C529.509 386 541 397.641 541 412V438C541 452.359 529.509 464 515.333 464H489.667C475.491 464 464 452.359 464 438V412Z" fill="#312985" fill-opacity="0.34"/>
<path d="M541 412C541 397.641 552.491 386 566.667 386H592.333C606.509 386 618 397.641 618 412V438C618 452.359 606.509 464 592.333 464H566.667C552.491 464 541 452.359 541 438V412Z" fill="#312985" fill-opacity="0.45"/>
<path d="M618 412C618 397.641 629.491 386 643.667 386H669.333C683.509 386 695 397.641 695 412V438C695 452.359 683.509 464 669.333 464H643.667C629.491 464 618 452.359 618 438V412Z" fill="#312985" fill-opacity="0.7"/>
<path d="M695 412C695 397.641 706.491 386 720.667 386H746.333C760.509 386 772 397.641 772 412V438C772 452.359 760.509 464 746.333 464H720.667C706.491 464 695 452.359 695 438V412Z" fill="#312985" fill-opacity="0.34"/>
<path d="M386 489.667C386 475.491 397.641 464 412 464H438C452.359 464 464 475.491 464 489.667V515.333C464 529.509 452.359 541 438 541H412C397.641 541 386 529.509 386 515.333V489.667Z" fill="#312985" fill-opacity="0.15"/>
<path d="M464 489.667C464 475.491 475.491 464 489.667 464H515.333C529.509 464 541 475.491 541 489.667V515.333C541 529.509 529.509 541 515.333 541H489.667C475.491 541 464 529.509 464 515.333V489.667Z" fill="#312985" fill-opacity="0.8"/>
<path d="M541 489.667C541 475.491 552.491 464 566.667 464H592.333C606.509 464 618 475.491 618 489.667V515.333C618 529.509 606.509 541 592.333 541H566.667C552.491 541 541 529.509 541 515.333V489.667Z" fill="#312985"/>
<path d="M618 489.667C618 475.491 629.491 464 643.667 464H669.333C683.509 464 695 475.491 695 489.667V515.333C695 529.509 683.509 541 669.333 541H643.667C629.491 541 618 529.509 618 515.333V489.667Z" fill="#312985" fill-opacity="0.2"/>
<path d="M695 489.667C695 475.491 706.491 464 720.667 464H746.333C760.509 464 772 475.491 772 489.667V515.333C772 529.509 760.509 541 746.333 541H720.667C706.491 541 695 529.509 695 515.333V489.667Z" fill="#312985" fill-opacity="0.45"/>
<path d="M386 566.667C386 552.491 397.641 541 412 541H438C452.359 541 464 552.491 464 566.667V592.333C464 606.509 452.359 618 438 618H412C397.641 618 386 606.509 386 592.333V566.667Z" fill="#312985" fill-opacity="0.2"/>
<path d="M464 566.667C464 552.491 475.491 541 489.667 541H515.333C529.509 541 541 552.491 541 566.667V592.333C541 606.509 529.509 618 515.333 618H489.667C475.491 618 464 606.509 464 592.333V566.667Z" fill="#312985" fill-opacity="0.45"/>
<path d="M541 566.667C541 552.491 552.491 541 566.667 541H592.333C606.509 541 618 552.491 618 566.667V592.333C618 606.509 606.509 618 592.333 618H566.667C552.491 618 541 606.509 541 592.333V566.667Z" fill="#312985" fill-opacity="0.64"/>
<path d="M618 566.667C618 552.491 629.491 541 643.667 541H669.333C683.509 541 695 552.491 695 566.667V592.333C695 606.509 683.509 618 669.333 618H643.667C629.491 618 618 606.509 618 592.333V566.667Z" fill="#312985" fill-opacity="0.2"/>
<path d="M695 566.667C695 552.491 706.491 541 720.667 541H746.333C760.509 541 772 552.491 772 566.667V592.333C772 606.509 760.509 618 746.333 618H720.667C706.491 618 695 606.509 695 592.333V566.667Z" fill="#312985"/>
<path d="M695 643.667C695 629.491 706.491 618 720.667 618H746.333C760.509 618 772 629.491 772 643.667V669.333C772 683.509 760.509 695 746.333 695H720.667C706.491 695 695 683.509 695 669.333V643.667Z" fill="#312985" fill-opacity="0.8"/>
<path d="M695 720.667C695 706.491 706.491 695 720.667 695H746.333C760.509 695 772 706.491 772 720.667V746.333C772 760.509 760.509 772 746.333 772H720.667C706.491 772 695 760.509 695 746.333V720.667Z" fill="#312985" fill-opacity="0.64"/>
</g>
</svg>
