<svg width="730" height="609" viewBox="0 0 730 609" fill="none" xmlns="http://www.w3.org/2000/svg">
<g opacity="0.1">
<path d="M422 17C422 2.64059 410.359 -9 396 -9H370C355.641 -9 344 2.6406 344 17V43C344 57.3594 355.641 69 370 69H396C410.359 69 422 57.3594 422 43V17Z" fill="#312985" fill-opacity="0.2"/>
<path d="M344 17C344 2.64059 332.359 -9 318 -9H292C277.641 -9 266 2.6406 266 17V43C266 57.3594 277.641 69 292 69H318C332.359 69 344 57.3594 344 43V17Z" fill="#312985" fill-opacity="0.34"/>
<path d="M266 17C266 2.64059 254.509 -9 240.333 -9H214.667C200.491 -9 189 2.6406 189 17V43C189 57.3594 200.491 69 214.667 69H240.333C254.509 69 266 57.3594 266 43V17Z" fill="#312985" fill-opacity="0.65"/>
<path d="M189 17C189 2.64059 177.509 -9 163.333 -9H137.667C123.491 -9 112 2.6406 112 17V43C112 57.3594 123.491 69 137.667 69H163.333C177.509 69 189 57.3594 189 43V17Z" fill="#312985" fill-opacity="0.6"/>
<path d="M112 17C112 2.64059 100.509 -9 86.3333 -9H60.6667C46.4914 -9 35 2.6406 35 17V43C35 57.3594 46.4914 69 60.6667 69H86.3333C100.509 69 112 57.3594 112 43V17Z" fill="#312985" fill-opacity="0.7"/>
<path d="M35 17C35 2.64059 23.5086 -9 9.33333 -9H-16.3333C-30.5086 -9 -42 2.6406 -42 17V43C-42 57.3594 -30.5086 69 -16.3333 69H9.33334C23.5086 69 35 57.3594 35 43V17Z" fill="#312985" fill-opacity="0.34"/>
<path d="M344 94.3333C344 80.3421 332.359 69 318 69H292C277.641 69 266 80.3421 266 94.3333V119.667C266 133.658 277.641 145 292 145H318C332.359 145 344 133.658 344 119.667V94.3333Z" fill="#312985" fill-opacity="0.65"/>
<path d="M266 94.3333C266 80.3421 254.509 69 240.333 69H214.667C200.491 69 189 80.3421 189 94.3333V119.667C189 133.658 200.491 145 214.667 145H240.333C254.509 145 266 133.658 266 119.667V94.3333Z" fill="#312985" fill-opacity="0.34"/>
<path d="M189 94.3333C189 80.3421 177.509 69 163.333 69H137.667C123.491 69 112 80.3421 112 94.3333V119.667C112 133.658 123.491 145 137.667 145H163.333C177.509 145 189 133.658 189 119.667V94.3333Z" fill="#312985" fill-opacity="0.34"/>
<path d="M112 94.3333C112 80.3421 100.509 69 86.3333 69H60.6667C46.4914 69 35 80.3421 35 94.3333V119.667C35 133.658 46.4914 145 60.6667 145H86.3333C100.509 145 112 133.658 112 119.667V94.3333Z" fill="#312985" fill-opacity="0.7"/>
<path d="M35 94.3333C35 80.3421 23.5086 69 9.33333 69H-16.3333C-30.5086 69 -42 80.3421 -42 94.3333V119.667C-42 133.658 -30.5086 145 -16.3333 145H9.33334C23.5086 145 35 133.658 35 119.667V94.3333Z" fill="#312985" fill-opacity="0.34"/>
<path d="M498 171C498 156.641 486.658 145 472.667 145H447.333C433.342 145 422 156.641 422 171V197C422 211.359 433.342 223 447.333 223H472.667C486.658 223 498 211.359 498 197V171Z" fill="#312985" fill-opacity="0.45"/>
<path d="M422 171C422 156.641 410.359 145 396 145H370C355.641 145 344 156.641 344 171V197C344 211.359 355.641 223 370 223H396C410.359 223 422 211.359 422 197V171Z" fill="#312985" fill-opacity="0.45"/>
<path d="M344 171C344 156.641 332.359 145 318 145H292C277.641 145 266 156.641 266 171V197C266 211.359 277.641 223 292 223H318C332.359 223 344 211.359 344 197V171Z" fill="#312985"/>
<path d="M266 171C266 156.641 254.509 145 240.333 145H214.667C200.491 145 189 156.641 189 171V197C189 211.359 200.491 223 214.667 223H240.333C254.509 223 266 211.359 266 197V171Z" fill="#312985" fill-opacity="0.2"/>
<path d="M189 171C189 156.641 177.509 145 163.333 145H137.667C123.491 145 112 156.641 112 171V197C112 211.359 123.491 223 137.667 223H163.333C177.509 223 189 211.359 189 197V171Z" fill="#312985"/>
<path d="M112 171C112 156.641 100.509 145 86.3333 145H60.6667C46.4914 145 35 156.641 35 171V197C35 211.359 46.4914 223 60.6667 223H86.3333C100.509 223 112 211.359 112 197V171Z" fill="#312985" fill-opacity="0.45"/>
<path d="M35 171C35 156.641 23.5086 145 9.33333 145H-16.3333C-30.5086 145 -42 156.641 -42 171V197C-42 211.359 -30.5086 223 -16.3333 223H9.33334C23.5086 223 35 211.359 35 197V171Z" fill="#312985" fill-opacity="0.7"/>
<path d="M498 249C498 234.641 486.658 223 472.667 223H447.333C433.342 223 422 234.641 422 249V275C422 289.359 433.342 301 447.333 301H472.667C486.658 301 498 289.359 498 275V249Z" fill="#312985" fill-opacity="0.2"/>
<path d="M422 249C422 234.641 410.359 223 396 223H370C355.641 223 344 234.641 344 249V275C344 289.359 355.641 301 370 301H396C410.359 301 422 289.359 422 275V249Z" fill="#312985" fill-opacity="0.34"/>
<path d="M344 249C344 234.641 332.359 223 318 223H292C277.641 223 266 234.641 266 249V275C266 289.359 277.641 301 292 301H318C332.359 301 344 289.359 344 275V249Z" fill="#312985"/>
<path d="M266 249C266 234.641 254.509 223 240.333 223H214.667C200.491 223 189 234.641 189 249V275C189 289.359 200.491 301 214.667 301H240.333C254.509 301 266 289.359 266 275V249Z" fill="#312985" fill-opacity="0.34"/>
<path d="M189 249C189 234.641 177.509 223 163.333 223H137.667C123.491 223 112 234.641 112 249V275C112 289.359 123.491 301 137.667 301H163.333C177.509 301 189 289.359 189 275V249Z" fill="#312985" fill-opacity="0.45"/>
<path d="M112 249C112 234.641 100.509 223 86.3333 223H60.6667C46.4914 223 35 234.641 35 249V275C35 289.359 46.4914 301 60.6667 301H86.3333C100.509 301 112 289.359 112 275V249Z" fill="#312985" fill-opacity="0.7"/>
<path d="M35 249C35 234.641 23.5086 223 9.33333 223H-16.3333C-30.5086 223 -42 234.641 -42 249V275C-42 289.359 -30.5086 301 -16.3333 301H9.33334C23.5086 301 35 289.359 35 275V249Z" fill="#312985" fill-opacity="0.34"/>
<path d="M344 326.667C344 312.491 332.359 301 318 301H292C277.641 301 266 312.491 266 326.667V352.333C266 366.509 277.641 378 292 378H318C332.359 378 344 366.509 344 352.333V326.667Z" fill="#312985" fill-opacity="0.15"/>
<path d="M266 326.667C266 312.491 254.509 301 240.333 301H214.667C200.491 301 189 312.491 189 326.667V352.333C189 366.509 200.491 378 214.667 378H240.333C254.509 378 266 366.509 266 352.333V326.667Z" fill="#312985" fill-opacity="0.8"/>
<path d="M189 326.667C189 312.491 177.509 301 163.333 301H137.667C123.491 301 112 312.491 112 326.667V352.333C112 366.509 123.491 378 137.667 378H163.333C177.509 378 189 366.509 189 352.333V326.667Z" fill="#312985"/>
<path d="M112 326.667C112 312.491 100.509 301 86.3333 301H60.6667C46.4914 301 35 312.491 35 326.667V352.333C35 366.509 46.4914 378 60.6667 378H86.3333C100.509 378 112 366.509 112 352.333V326.667Z" fill="#312985" fill-opacity="0.2"/>
<path d="M35 326.667C35 312.491 23.5086 301 9.33333 301H-16.3333C-30.5086 301 -42 312.491 -42 326.667V352.333C-42 366.509 -30.5086 378 -16.3333 378H9.33334C23.5086 378 35 366.509 35 352.333V326.667Z" fill="#312985" fill-opacity="0.45"/>
<path d="M344 403.667C344 389.491 332.359 378 318 378H292C277.641 378 266 389.491 266 403.667V429.333C266 443.509 277.641 455 292 455H318C332.359 455 344 443.509 344 429.333V403.667Z" fill="#312985" fill-opacity="0.2"/>
<path d="M266 403.667C266 389.491 254.509 378 240.333 378H214.667C200.491 378 189 389.491 189 403.667V429.333C189 443.509 200.491 455 214.667 455H240.333C254.509 455 266 443.509 266 429.333V403.667Z" fill="#312985" fill-opacity="0.45"/>
<path d="M189 403.667C189 389.491 177.509 378 163.333 378H137.667C123.491 378 112 389.491 112 403.667V429.333C112 443.509 123.491 455 137.667 455H163.333C177.509 455 189 443.509 189 429.333V403.667Z" fill="#312985" fill-opacity="0.64"/>
<path d="M112 403.667C112 389.491 100.509 378 86.3333 378H60.6667C46.4914 378 35 389.491 35 403.667V429.333C35 443.509 46.4914 455 60.6667 455H86.3333C100.509 455 112 443.509 112 429.333V403.667Z" fill="#312985" fill-opacity="0.2"/>
<path d="M35 403.667C35 389.491 23.5086 378 9.33333 378H-16.3333C-30.5086 378 -42 389.491 -42 403.667V429.333C-42 443.509 -30.5086 455 -16.3333 455H9.33334C23.5086 455 35 443.509 35 429.333V403.667Z" fill="#312985"/>
<path d="M35 480.667C35 466.491 23.5086 455 9.33333 455H-16.3333C-30.5086 455 -42 466.491 -42 480.667V506.333C-42 520.509 -30.5086 532 -16.3333 532H9.33334C23.5086 532 35 520.509 35 506.333V480.667Z" fill="#312985" fill-opacity="0.8"/>
<path d="M35 557.667C35 543.491 23.5086 532 9.33333 532H-16.3333C-30.5086 532 -42 543.491 -42 557.667V583.333C-42 597.509 -30.5086 609 -16.3333 609H9.33334C23.5086 609 35 597.509 35 583.333V557.667Z" fill="#312985" fill-opacity="0.64"/>
</g>
</svg>
