<svg width="219" height="24" viewBox="0 0 219 24" fill="none" xmlns="http://www.w3.org/2000/svg">
<path fill-rule="evenodd" clip-rule="evenodd" d="M17.1363 1.15166C15.5792 0.413158 13.8379 0 12 0H0V12V24L6.77986 14.9602C6.28348 14.0867 6 13.0765 6 12V6H12C12.475 6 12.9372 6.0552 13.3803 6.15954L17.1363 1.15166ZM20.9746 4.03385L17.2201 9.03982C17.7165 9.91328 18 10.9235 18 12C18 15.3137 15.3137 18 12 18C11.525 18 11.0628 17.9448 10.6197 17.8405L6 24H12C18.6274 24 24 18.6274 24 12C24 8.94289 22.8568 6.15279 20.9746 4.03385Z" fill="#5D4FFF"/>
<path fill-rule="evenodd" clip-rule="evenodd" d="M77.4646 0.600006V23.4H84.4554V15.496H86.583L91.4462 23.4H99.0449L94.1817 15.192C95.8028 14.6853 99.0449 12.5776 99.0449 8.2C99.0449 3.82241 96.0054 0.900006 91.7501 0.600006H77.4646ZM84.4554 7.59201V8.808H91.4462C91.6488 8.808 92.0541 8.68641 92.0541 8.20001C92.0541 7.7136 91.6488 7.59201 91.4462 7.59201H84.4554Z" fill="#5D4FFF"/>
<path fill-rule="evenodd" clip-rule="evenodd" d="M148.588 0.600006V23.4H155.579V15.496H157.707L162.57 23.4H170.168L165.305 15.192C166.926 14.6853 170.168 12.5776 170.168 8.2C170.168 3.82241 167.129 0.900006 162.874 0.600006H148.588ZM155.579 7.59201V8.808H162.57C162.772 8.808 163.178 8.68641 163.178 8.20001C163.178 7.7136 162.772 7.59201 162.57 7.59201H155.579Z" fill="#5D4FFF"/>
<path d="M34 7.5V0.600006H52.5408V7.5L43.1184 16.5H52.8447V23.4H34V16.5L43.4224 7.5H34Z" fill="#5D4FFF"/>
<path d="M74.425 0.600006H54.9724V23.4H74.425V16.712H62.1549V15.496H74.425V8.80801H62.1549V7.28801H74.425V0.600006Z" fill="#5D4FFF"/>
<path fill-rule="evenodd" clip-rule="evenodd" d="M112.114 24C118.829 24 124.272 18.6274 124.272 12C124.272 5.37258 118.829 0 112.114 0C105.4 0 99.9565 5.37258 99.9565 12C99.9565 18.6274 105.4 24 112.114 24ZM112.114 17.4C115.136 17.4 117.585 14.9823 117.585 12C117.585 9.01766 115.136 6.6 112.114 6.6C109.093 6.6 106.643 9.01766 106.643 12C106.643 14.9823 109.093 17.4 112.114 17.4Z" fill="#5D4FFF"/>
<path fill-rule="evenodd" clip-rule="evenodd" d="M183.238 24C189.953 24 195.396 18.6274 195.396 12C195.396 5.37258 189.953 0 183.238 0C176.524 0 171.08 5.37258 171.08 12C171.08 18.6274 176.524 24 183.238 24ZM183.238 17.4C186.26 17.4 188.709 14.9823 188.709 12C188.709 9.01766 186.26 6.6 183.238 6.6C180.217 6.6 177.767 9.01766 177.767 12C177.767 14.9823 180.217 17.4 183.238 17.4Z" fill="#5D4FFF"/>
<path fill-rule="evenodd" clip-rule="evenodd" d="M126.096 0.600006V23.4H137.038C139.774 23.4 146.764 20.36 146.764 11.848C146.764 3.33601 139.47 0.600006 137.038 0.600006H126.096ZM132.783 7.20001V16.8H136.323C137.372 16.672 139.47 15.52 139.47 11.936C139.47 8.352 137.372 7.28534 136.323 7.20001H132.783Z" fill="#5D4FFF"/>
<path fill-rule="evenodd" clip-rule="evenodd" d="M197.22 0.600006V23.4H204.514V15.6H211.809C214.849 15.6 218.8 13.38 218.8 8.1C218.8 2.82001 214.241 0.800006 212.113 0.600006H197.22ZM204.211 8.7H211.505C211.708 8.7 212.113 8.58 212.113 8.1C212.113 7.62 211.708 7.50001 211.505 7.50001H204.211V8.7Z" fill="#5D4FFF"/>
</svg>
