<svg width="801" height="977" viewBox="0 0 801 977" fill="none" xmlns="http://www.w3.org/2000/svg">
<path fill-rule="evenodd" clip-rule="evenodd" d="M258.816 871.285V824.559H451.498C473.341 827.983 517.029 848.021 517.029 900.779C517.029 953.537 473.341 973.576 451.498 977H258.816V929.942L321.739 871.285H258.816ZM319.457 930.606L380.098 873.606V930.606H319.457ZM427.046 869.297V932.593H447.259C455.193 930.936 471.059 922.32 471.059 901.111C471.059 879.902 455.193 871.064 447.259 869.297H427.046Z" fill="url(#paint0_linear_303_1047)"/>
<path fill-rule="evenodd" clip-rule="evenodd" d="M223.643 171.103C144.607 149.918 63.3686 196.838 42.191 275.901L5.08502 414.431C-16.0925 493.495 30.8107 574.762 109.846 595.947L300.993 647.182L250.828 734.102C234.535 762.332 254.901 797.619 287.486 797.619H470.608C503.194 797.619 523.56 762.332 507.267 734.102L484.31 694.324C555.307 701.498 623.06 656.37 642.127 585.186L679.233 446.656C700.41 367.593 653.507 286.326 574.472 265.141L223.643 171.103ZM132.469 384.386C103.15 376.527 73.0132 393.933 65.1572 423.262C57.3011 452.591 74.7004 482.738 104.019 490.597C133.338 498.456 163.475 481.05 171.331 451.721C179.187 422.392 161.788 392.245 132.469 384.386ZM369.1 494.41C376.956 465.08 407.092 447.675 436.411 455.534C465.73 463.392 483.13 493.539 475.274 522.869C467.418 552.198 437.281 569.603 407.962 561.745C378.643 553.886 361.244 523.739 369.1 494.41Z" fill="url(#paint1_linear_303_1047)"/>
<path d="M692.94 183.059C700.796 153.729 730.932 136.324 760.251 144.183C789.571 152.042 806.97 182.189 799.114 211.518C791.258 240.847 761.121 258.252 731.802 250.394C702.483 242.535 685.084 212.388 692.94 183.059Z" fill="url(#paint2_linear_303_1047)"/>
<path d="M162.072 40.7629C169.928 11.4336 200.065 -5.97177 229.384 1.887C258.703 9.74577 276.102 39.8927 268.246 69.222C260.39 98.5513 230.254 115.957 200.934 108.098C171.615 100.239 154.216 70.0922 162.072 40.7629Z" fill="url(#paint3_linear_303_1047)"/>
<defs>
<linearGradient id="paint0_linear_303_1047" x1="-32.174" y1="206.531" x2="401.09" y2="955.06" gradientUnits="userSpaceOnUse">
<stop stop-color="#5D4FFF"/>
<stop offset="1" stop-color="#2B0230" stop-opacity="0"/>
</linearGradient>
<linearGradient id="paint1_linear_303_1047" x1="-32.174" y1="206.531" x2="401.09" y2="955.06" gradientUnits="userSpaceOnUse">
<stop stop-color="#5D4FFF"/>
<stop offset="1" stop-color="#2B0230" stop-opacity="0"/>
</linearGradient>
<linearGradient id="paint2_linear_303_1047" x1="-32.174" y1="206.531" x2="401.09" y2="955.06" gradientUnits="userSpaceOnUse">
<stop stop-color="#5D4FFF"/>
<stop offset="1" stop-color="#2B0230" stop-opacity="0"/>
</linearGradient>
<linearGradient id="paint3_linear_303_1047" x1="-32.174" y1="206.531" x2="401.09" y2="955.06" gradientUnits="userSpaceOnUse">
<stop stop-color="#5D4FFF"/>
<stop offset="1" stop-color="#2B0230" stop-opacity="0"/>
</linearGradient>
</defs>
</svg>
